<svg width="48" height="48" viewBox="0 0 48 48" fill="none" xmlns="http://www.w3.org/2000/svg">
<g clip-path="url(#clip0_5322_59400)">
<path d="M48 0H0V48H48V0Z" fill="#005FF9"/>
<path d="M43.5 33H4.5V39H43.5V33Z" fill="#0042B0"/>
<path fill-rule="evenodd" clip-rule="evenodd" d="M9 18C9 16.3432 7.65675 15 6 15H4.5C4.1025 15 3.72075 15.1583 3.4395 15.4395C3.15825 15.7208 3 16.1025 3 16.5C3 16.8983 3.15825 17.28 3.4395 17.5612C3.72075 17.8425 4.1025 18 4.5 18H9Z" fill="#BEC0C2"/>
<path fill-rule="evenodd" clip-rule="evenodd" d="M39 18C39 16.3432 40.3432 15 42 15H43.5C43.8975 15 44.2793 15.1583 44.5605 15.4395C44.8418 15.7208 45 16.1025 45 16.5C45 16.8983 44.8418 17.28 44.5605 17.5612C44.2793 17.8425 43.8975 18 43.5 18H39Z" fill="#BEC0C2"/>
<path fill-rule="evenodd" clip-rule="evenodd" d="M45 22.821C45 21.8153 44.1848 20.9993 43.1783 20.9993H40.8217C39.8152 20.9993 39 21.8153 39 22.821V37.1783C39 38.184 39.8152 39 40.8217 39H43.1783C44.1848 39 45 38.184 45 37.1783V22.821Z" fill="black"/>
<path fill-rule="evenodd" clip-rule="evenodd" d="M9 22.821C9 21.8153 8.18475 20.9993 7.179 20.9993H4.82175C3.81525 20.9993 3 21.8153 3 22.821V37.1783C3 38.184 3.81525 39 4.82175 39H7.179C8.18475 39 9 38.184 9 37.1783V22.821Z" fill="black"/>
<path fill-rule="evenodd" clip-rule="evenodd" d="M37.6759 36.0006C40.2581 36.0006 42.5509 34.3476 43.3676 31.8973C43.5544 31.3378 43.7441 30.7701 43.9241 30.2293C44.6366 28.0903 45.0004 25.8516 45.0004 23.5971C44.9996 22.8883 44.9996 22.1638 44.9996 21.5271C44.9981 20.4141 44.3576 19.4016 43.3534 18.9223C42.2246 18.5661 40.9009 17.9038 40.3369 17.0578C38.9531 14.9826 37.0939 12.1933 36.3394 11.0616C36.1211 10.7346 35.7881 10.5006 35.4079 10.4046H35.4064C27.9169 8.53181 20.0831 8.53181 12.5944 10.4046H12.5929C12.2119 10.5006 11.8789 10.7346 11.6606 11.0616C10.9069 12.1933 9.04687 14.9826 7.66387 17.0578C7.09987 17.9038 5.77537 18.5661 4.68187 18.9951C3.70612 19.4608 3.08437 20.4463 3.08437 21.5271C3.00112 22.1638 3.00037 22.8883 3.00037 23.5971C3.00037 25.8516 3.36337 28.0903 4.07662 30.2293C4.25662 30.7701 4.44637 31.3378 4.63237 31.8973C5.44912 34.3476 7.74187 36.0006 10.3249 36.0006H37.6759Z" fill="#BEC0C2"/>
<path fill-rule="evenodd" clip-rule="evenodd" d="M44.899 20.7849C44.8097 21.2424 44.6597 21.6849 44.449 22.1049C43.804 23.3949 42.769 25.4574 42.274 26.4474C42.1022 26.8006 41.7872 27.0699 41.4122 27.1974C39.4097 27.8649 32.9972 30.0024 32.9972 30.0024H14.9965C14.9965 30.0024 8.59146 27.8649 6.58896 27.1974C6.20646 27.0699 5.89896 26.8006 5.71896 26.4474C5.23146 25.4574 4.19646 23.3949 3.55221 22.1049C3.37971 21.7524 3.23647 21.3774 3.14722 20.9949C3.30472 20.1324 3.87397 19.3824 4.68397 18.9924C5.77222 18.5649 7.09972 17.9049 7.66222 17.0574C9.04897 14.9799 10.9097 12.1899 11.6597 11.0574C11.8772 10.7349 12.214 10.5024 12.5972 10.4049C16.339 9.46737 20.1715 8.99487 23.9965 8.99487C27.829 8.99487 31.6622 9.46737 35.4047 10.4049C35.7872 10.5024 36.1247 10.7349 36.3422 11.0574C37.0922 12.1899 38.9515 14.9799 40.3397 17.0574C40.9022 17.9049 42.2222 18.5649 43.354 18.9249C44.1272 19.2924 44.6897 19.9824 44.899 20.7849Z" fill="#E9E9E9"/>
<path fill-rule="evenodd" clip-rule="evenodd" d="M29.9971 30.0024V36.0024H17.9971V29.9949L20.6063 9.12987C21.7396 9.03987 22.8646 8.99487 23.9971 8.99487C25.1296 8.99487 26.2621 9.03237 27.3871 9.12237L29.9971 30.0024Z" fill="#FFAD00"/>
<path d="M30 27H18V30H30V27Z" fill="#FF9300"/>
<path fill-rule="evenodd" clip-rule="evenodd" d="M10.3679 19.3672C10.2374 19.2367 10.0319 19.2165 9.87819 19.3192C9.72444 19.4212 9.66444 19.6185 9.73419 19.7895C10.4384 21.5062 11.5042 24.102 12.2617 25.9492C12.4642 26.4435 12.9007 26.8035 13.4249 26.9085C13.9484 27.0135 14.4899 26.85 14.8679 26.472C14.9264 26.4127 14.9849 26.355 15.0427 26.2972C15.3419 25.9972 15.5099 25.5907 15.5099 25.1677C15.5099 24.744 15.3419 24.3382 15.0419 24.039C13.7759 22.7737 11.7239 20.7225 10.3679 19.3672Z" fill="#BEC0C2"/>
<path fill-rule="evenodd" clip-rule="evenodd" d="M37.6582 19.3445C37.7887 19.214 37.9935 19.1938 38.1472 19.2965C38.3017 19.3985 38.3617 19.5958 38.292 19.7668C37.587 21.4835 36.522 24.0793 35.7645 25.9265C35.5612 26.4208 35.1247 26.7808 34.6012 26.8858C34.0777 26.9908 33.5362 26.8273 33.1582 26.45C33.0997 26.3908 33.0412 26.3315 32.9835 26.2738C32.6835 25.9745 32.5162 25.5688 32.5162 25.145C32.5162 24.7213 32.6842 24.3155 32.9842 24.0163C34.2495 22.751 36.3015 20.6998 37.6582 19.3445Z" fill="#BEC0C2"/>
<path fill-rule="evenodd" clip-rule="evenodd" d="M35.9971 24.295V24.8275C35.9971 25.06 35.9671 25.2925 35.9071 25.51C35.8171 25.885 35.6438 26.2375 35.4046 26.5375C35.0371 27.0175 34.5121 27.37 33.8888 27.5275C30.6413 28.3375 27.3196 28.7425 23.9971 28.7425C20.6821 28.7425 17.3588 28.3375 14.1113 27.5275C13.0913 27.28 12.3263 26.485 12.0871 25.51C12.0271 25.2925 11.9971 25.06 11.9971 24.8275V24.295C11.9971 24.1225 12.1171 23.965 12.2896 23.9275C20.0971 21.8725 27.9046 21.9025 35.7113 23.9275C35.8846 23.965 35.9971 24.1225 35.9971 24.295Z" fill="black"/>
<path fill-rule="evenodd" clip-rule="evenodd" d="M35.9068 25.5095C35.8168 25.8845 35.6435 26.2378 35.4043 26.537C35.0368 27.0178 34.5118 27.3695 33.8893 27.527C30.641 28.3378 27.3193 28.7428 23.9968 28.7428C20.6818 28.7428 17.3593 28.3378 14.111 27.527C13.0918 27.2795 12.3268 26.4853 12.0868 25.5095C19.9993 26.4928 28.0018 26.4928 35.9068 25.5095Z" fill="#41474D"/>
<path fill-rule="evenodd" clip-rule="evenodd" d="M6.58896 27.1972C6.20646 27.0697 5.89896 26.8005 5.71896 26.4472C5.45646 25.9072 5.02146 25.053 4.58646 24.1672C4.21896 23.4397 3.84396 22.6897 3.55146 22.1047C3.52896 22.0597 3.50646 22.0147 3.49146 21.9697C3.61146 21.8797 3.74646 21.8197 3.89646 21.7822C4.41396 21.6622 4.95396 21.9097 5.19396 22.3897C5.65146 23.3055 5.99646 24.0022 5.99646 24.0022C6.06396 24.0022 6.13146 24.0022 6.19896 24.0097L6.58896 27.1972Z" fill="#FFAD00"/>
<path fill-rule="evenodd" clip-rule="evenodd" d="M11.9064 28.9672C11.8839 28.9597 11.8689 28.9597 11.8539 28.9447C9.92643 28.3147 7.64643 27.5497 6.58893 27.1972C6.20643 27.0697 5.89893 26.7997 5.71893 26.4472C5.45643 25.9072 5.02143 25.0522 4.58643 24.1672C5.03643 24.0622 5.50893 24.0022 5.99643 24.0022C6.06393 24.0022 6.13143 24.0022 6.19893 24.0097C6.30393 24.0097 6.40143 24.0172 6.49893 24.0322C6.61143 24.0457 6.74418 24.0659 6.88368 24.0907C7.71468 24.2099 8.48718 24.4979 9.16968 24.9307C9.32793 25.0267 9.48543 25.1309 9.64143 25.2472C9.73143 25.3072 9.81393 25.3822 9.90393 25.4572C10.0089 25.5397 10.1139 25.6372 10.2114 25.7347C10.2789 25.8022 10.3539 25.8847 10.4289 25.9597C10.4514 25.9822 10.4664 25.9972 10.4814 26.0197C10.5639 26.1097 10.6389 26.1997 10.7064 26.2972C11.3139 27.0547 11.7339 27.9697 11.9064 28.9672Z" fill="white"/>
<path fill-rule="evenodd" clip-rule="evenodd" d="M41.794 24.0104C41.8615 24.0029 41.929 24.0029 41.9972 24.0029C41.9972 24.0029 42.349 23.3054 42.8065 22.3904C43.0465 21.9104 43.5865 21.6629 44.104 21.7829C44.254 21.8204 44.389 21.8804 44.509 21.9779C44.4865 22.0229 44.4715 22.0604 44.449 22.1054C44.1565 22.6904 43.7815 23.4404 43.4065 24.1679C42.9715 25.0529 42.544 25.9079 42.274 26.4479C42.1015 26.8004 41.7865 27.0704 41.4115 27.1979L41.794 24.0104Z" fill="#FFAD00"/>
<path fill-rule="evenodd" clip-rule="evenodd" d="M43.4068 24.1679C42.9718 25.0529 42.5443 25.9079 42.2736 26.4479C42.1018 26.8004 41.7868 27.0704 41.4118 27.1979C40.3543 27.5504 38.0668 28.3154 36.1393 28.9522C36.1243 28.9604 36.1018 28.9679 36.0861 28.9679C36.2818 27.8272 36.8061 26.8004 37.5486 25.9822C37.5486 25.9754 37.5561 25.9679 37.5561 25.9679C37.6393 25.8854 37.7143 25.8104 37.7893 25.7354C37.8718 25.6529 37.9536 25.5704 38.0368 25.5029C38.1186 25.4279 38.2086 25.3604 38.2918 25.2929C38.4831 25.1444 38.6781 25.0162 38.8738 24.9007C39.5638 24.4732 40.3408 24.1919 41.1763 24.0787C41.4358 24.0374 41.6503 24.0179 41.7943 24.0104C41.8611 24.0029 41.9286 24.0029 41.9968 24.0029C42.4843 24.0029 42.9561 24.0629 43.4068 24.1679Z" fill="white"/>
<path fill-rule="evenodd" clip-rule="evenodd" d="M36 36C36 34.3425 34.6568 33 33 33H14.997C13.3418 33 12 34.3418 12 35.997V36H36Z" fill="#999C9F"/>
<path d="M30 30H18V36H30V30Z" fill="#BA5040"/>
<path fill-rule="evenodd" clip-rule="evenodd" d="M36 30.396C36 30.1777 35.823 30.0007 35.6047 30.0007H12.423C12.3112 30.0007 12.2033 30.0442 12.1245 30.1245C12.045 30.2032 12 30.3112 12 30.423V30.426C12 31.848 13.1527 33.0007 14.574 33.0007H33.399C34.089 33.0007 34.7505 32.7255 35.238 32.238C35.7262 31.7505 36 31.089 36 30.399V30.396Z" fill="black"/>
<path fill-rule="evenodd" clip-rule="evenodd" d="M37.9766 17.4327C37.7816 17.7852 37.4141 18.0027 37.0166 18.0027H10.9841C10.5866 18.0027 10.2191 17.7852 10.0166 17.4327C9.82162 17.0802 9.83661 16.6527 10.0466 16.3077C10.9841 14.8002 12.2666 12.7302 12.6191 12.1527C12.6866 12.0552 12.7766 11.9802 12.8891 11.9502H12.8966C15.1916 11.3427 21.9941 11.1177 27.6116 11.2827C30.8966 11.3727 33.7691 11.5977 35.1041 11.9502C35.2166 11.9802 35.3141 12.0552 35.3816 12.1527C35.7341 12.7302 37.0166 14.8002 37.9541 16.3077C38.1641 16.6527 38.1716 17.0802 37.9766 17.4327Z" fill="#41474D"/>
<path fill-rule="evenodd" clip-rule="evenodd" d="M27.6116 11.2827C27.4616 11.8002 27.0716 12.2352 26.5391 12.4452C19.8941 14.9877 11.9966 18.0027 11.9966 18.0027H10.9841C10.5866 18.0027 10.2191 17.7852 10.0166 17.4327C9.82162 17.0802 9.83662 16.6527 10.0466 16.3077C10.9841 14.8002 12.2666 12.7302 12.6191 12.1527C12.6866 12.0552 12.7766 11.9802 12.8891 11.9502H12.8966C15.1916 11.3427 21.9941 11.1177 27.6116 11.2827Z" fill="#576170"/>
<path fill-rule="evenodd" clip-rule="evenodd" d="M12 32.634C12 31.1797 10.821 30 9.366 30H6.672C6.49425 30 6.32325 30.0705 6.19725 30.1965C6.07125 30.3225 6 30.4935 6 30.672V30.675C6 31.959 7.041 33 8.325 33H11.637C11.8372 33 12 32.8373 12 32.637V32.634Z" fill="white"/>
<path fill-rule="evenodd" clip-rule="evenodd" d="M36 32.61C36 31.9177 36.2752 31.254 36.765 30.7642C37.254 30.2752 37.9185 30.0007 38.61 30.0007H41.328C41.5065 30.0007 41.6767 30.0705 41.8027 30.1965C41.9287 30.3225 42 30.4942 42 30.672V30.675C42 31.959 40.959 33.0007 39.675 33.0007H36.387C36.1732 33.0007 36 32.8267 36 32.613V32.61Z" fill="white"/>
</g>
<defs>
<clipPath id="clip0_5322_59400">
<rect width="48" height="48" rx="12" fill="white"/>
</clipPath>
</defs>
</svg>
