<svg width="48" height="48" viewBox="0 0 48 48" fill="none" xmlns="http://www.w3.org/2000/svg">
<g clip-path="url(#clip0_2109_22271)">
<rect width="48" height="48" rx="12" fill="#005FF9"/>
<g clip-path="url(#clip1_2109_22271)">
<rect width="48" height="48" fill="#005FF9"/>
<mask id="mask0_2109_22271" style="mask-type:alpha" maskUnits="userSpaceOnUse" x="6" y="6" width="36" height="36">
<rect x="6" y="6" width="36" height="36" rx="6" fill="white"/>
</mask>
<g mask="url(#mask0_2109_22271)">
<rect x="6" y="6" width="36" height="36" fill="white"/>
<path fill-rule="evenodd" clip-rule="evenodd" d="M6 6H42V18H6V6Z" fill="#FF9E00"/>
</g>
<path d="M24.8515 33.2V36H14.9515C14.9515 34.8933 15.1181 33.96 15.4515 33.2C15.7848 32.44 16.2048 31.7866 16.7115 31.24C17.2181 30.6933 17.7648 30.2266 18.3515 29.84C18.9381 29.4533 19.4848 29.0866 19.9915 28.74C20.4981 28.38 20.9181 28.0133 21.2515 27.64C21.5848 27.2666 21.7515 26.82 21.7515 26.3C21.7515 25.7933 21.5648 25.3666 21.1915 25.02C20.8315 24.6733 20.3515 24.5 19.7515 24.5C19.3248 24.5 18.9581 24.5866 18.6515 24.76C18.3581 24.9333 18.1115 25.1266 17.9115 25.34C17.6848 25.5933 17.4981 25.88 17.3515 26.2L14.9515 25C15.1915 24.3866 15.5381 23.8333 15.9915 23.34C16.3781 22.9266 16.8915 22.5533 17.5315 22.22C18.1715 21.8733 18.9781 21.7 19.9515 21.7C20.6981 21.7 21.3715 21.8133 21.9715 22.04C22.5848 22.2666 23.1048 22.58 23.5315 22.98C23.9581 23.3666 24.2848 23.8266 24.5115 24.36C24.7381 24.8933 24.8515 25.4733 24.8515 26.1C24.8515 26.7666 24.7381 27.3466 24.5115 27.84C24.2981 28.3333 24.0115 28.7733 23.6515 29.16C23.2915 29.5466 22.8915 29.9 22.4515 30.22C22.0115 30.5266 21.5648 30.8333 21.1115 31.14C20.6715 31.4466 20.2515 31.7666 19.8515 32.1C19.4515 32.42 19.1181 32.7866 18.8515 33.2H24.8515Z" fill="#2C2D2E"/>
<path d="M28.8554 25.8H26.4554V23.9C27.0154 23.82 27.4754 23.68 27.8354 23.48C28.2087 23.28 28.5087 23.0666 28.7354 22.84C29.002 22.5866 29.2087 22.3066 29.3554 22H31.8554V36H28.8554V25.8Z" fill="#2C2D2E"/>
</g>
</g>
<defs>
<clipPath id="clip0_2109_22271">
<rect width="48" height="48" rx="12" fill="white"/>
</clipPath>
<clipPath id="clip1_2109_22271">
<rect width="48" height="48" rx="9" fill="white"/>
</clipPath>
</defs>
</svg>
