<svg width="48" height="48" viewBox="0 0 48 48" fill="none" xmlns="http://www.w3.org/2000/svg">
<rect width="48" height="48" rx="12" fill="#005FF9"/>
<path d="M10.0001 23.9998C10.0001 20.2286 10.0001 18.343 11.1717 17.1714C12.3433 15.9999 14.2289 15.9999 18.0001 15.9999H20.0001C23.7713 15.9999 25.6569 15.9999 26.8284 17.1714C28 18.343 28 20.2286 28 23.9998C28 27.771 28 29.6566 26.8284 30.8282C25.6569 31.9998 23.7713 31.9998 20.0001 31.9998H18.0001C14.2289 31.9998 12.3433 31.9998 11.1717 30.8282C10.0001 29.6566 10.0001 27.771 10.0001 23.9998Z" fill="white"/>
<path d="M37.9996 28.6709C37.9996 30.0125 36.4477 30.7584 35.4001 29.9203L30.3423 25.874C29.1413 24.9132 29.1413 23.0866 30.3423 22.1258L35.4001 18.0796C36.4477 17.2415 37.9996 17.9873 37.9996 19.3289V28.6709Z" fill="white"/>
<path d="M19.0005 26C19.0005 27.657 17.6572 29.0002 16.0002 29.0002C14.3433 29.0002 13 27.657 13 26C13 24.343 14.3433 22.9998 16.0002 22.9998C17.6572 22.9998 19.0005 24.343 19.0005 26Z" fill="#FF9E00"/>
</svg>
