<svg width="48" height="48" viewBox="0 0 48 48" fill="none" xmlns="http://www.w3.org/2000/svg">
<rect width="48" height="48" rx="12" fill="#005FF9"/>
<path fill-rule="evenodd" clip-rule="evenodd" d="M16.3817 22.5017C16.2652 22.4957 16.1479 22.4927 16.0299 22.4927C12.3005 22.4927 9.27264 25.5193 9.27264 29.2475C9.27264 29.2512 9.27265 29.255 9.27265 29.2588C9.2739 32.9857 12.3013 36.0111 16.0299 36.0111H29.5447C33.2743 36.0111 36.3022 32.9844 36.3022 29.2565C36.3022 25.5283 33.2743 22.5017 29.5447 22.5017H16.3817Z" fill="#FFBE3F"/>
<path fill-rule="evenodd" clip-rule="evenodd" d="M22.9316 12C27.9799 12 32.0787 16.097 32.0787 21.1435C32.0787 26.19 27.9799 30.2869 22.9316 30.2869C17.8831 30.2869 13.7845 26.19 13.7845 21.1435C13.7845 16.097 17.8831 12 22.9316 12Z" fill="#F3A23A"/>
<mask id="mask0_1764_8798" style="mask-type:alpha" maskUnits="userSpaceOnUse" x="13" y="12" width="20" height="19">
<path d="M22.9322 12C27.9805 12 32.0793 16.097 32.0793 21.1435C32.0793 26.19 27.9805 30.2869 22.9322 30.2869C17.8837 30.2869 13.7851 26.19 13.7851 21.1435C13.7851 16.097 17.8837 12 22.9322 12Z" fill="white"/>
</mask>
<g mask="url(#mask0_1764_8798)">
<path fill-rule="evenodd" clip-rule="evenodd" d="M16.03 22.5013C19.7596 22.5013 22.7875 25.528 22.7875 29.2561C22.7875 32.9841 19.7596 36.0107 16.03 36.0107C12.3006 36.0107 9.27271 32.9841 9.27271 29.2561C9.27271 25.528 12.3006 22.5013 16.03 22.5013Z" fill="#FFCF38"/>
</g>
<path fill-rule="evenodd" clip-rule="evenodd" d="M29.545 17.4355C34.6731 17.4355 38.8364 21.5972 38.8364 26.7231C38.8364 31.8492 34.6731 36.0108 29.545 36.0108C24.417 36.0108 20.2537 31.8492 20.2537 26.7231C20.2537 21.5972 24.417 17.4355 29.545 17.4355Z" fill="#F3823A"/>
<mask id="mask1_1764_8798" style="mask-type:alpha" maskUnits="userSpaceOnUse" x="20" y="17" width="19" height="20">
<path d="M29.5444 17.4355C34.6725 17.4355 38.8358 21.5972 38.8358 26.7231C38.8358 31.8492 34.6725 36.0108 29.5444 36.0108C24.4164 36.0108 20.2531 31.8492 20.2531 26.7231C20.2531 21.5972 24.4164 17.4355 29.5444 17.4355Z" fill="white"/>
</mask>
<g mask="url(#mask1_1764_8798)">
<path fill-rule="evenodd" clip-rule="evenodd" d="M22.9322 12C27.9805 12 32.0793 16.097 32.0793 21.1435C32.0793 26.19 27.9805 30.2869 22.9322 30.2869C17.8837 30.2869 13.7851 26.19 13.7851 21.1435C13.7851 16.097 17.8837 12 22.9322 12Z" fill="#F26C32"/>
</g>
</svg>
