<svg width="48" height="48" viewBox="0 0 48 48" fill="none" xmlns="http://www.w3.org/2000/svg">
<g clip-path="url(#clip0_5322_59426)">
<path d="M48 0H0V48H48V0Z" fill="#005FF9"/>
<path d="M23.9992 42.7463C34.3546 42.7463 42.7492 34.3516 42.7492 23.9963C42.7492 13.641 34.3546 5.24634 23.9992 5.24634C13.6439 5.24634 5.24927 13.641 5.24927 23.9963C5.24927 34.3516 13.6439 42.7463 23.9992 42.7463Z" fill="white"/>
<path fill-rule="evenodd" clip-rule="evenodd" d="M36 11.8813V16.3416C32.403 17.4013 28.323 17.9998 24 17.9998C19.677 17.9998 15.597 17.4013 12 16.3416V11.8813C15.474 12.9066 19.5893 13.4998 24 13.4998C28.4107 13.4998 32.526 12.9066 36 11.8813Z" fill="#FFAD00"/>
<path fill-rule="evenodd" clip-rule="evenodd" d="M12 36.1187V31.6584C15.597 30.5987 19.677 30.0002 24 30.0002C28.323 30.0002 32.403 30.5987 36 31.6584V36.1187C32.526 35.0934 28.4107 34.5002 24 34.5002C19.5893 34.5002 15.474 35.0934 12 36.1187Z" fill="#FFAD00"/>
<path fill-rule="evenodd" clip-rule="evenodd" d="M33 33H27V15H33V33ZM15 33V15H21V33H15Z" fill="#FFAD00"/>
</g>
<defs>
<clipPath id="clip0_5322_59426">
<rect width="48" height="48" rx="12" fill="white"/>
</clipPath>
</defs>
</svg>
