<svg width="48" height="48" viewBox="0 0 48 48" fill="none" xmlns="http://www.w3.org/2000/svg">
<g clip-path="url(#clip0_5322_59384)">
<path d="M48 0H0V48H48V0Z" fill="#005FF9"/>
<path d="M35.25 42.75C40.2206 42.75 44.25 38.7206 44.25 33.75C44.25 28.7794 40.2206 24.75 35.25 24.75C30.2794 24.75 26.25 28.7794 26.25 33.75C26.25 38.7206 30.2794 42.75 35.25 42.75Z" fill="#FFAD00"/>
<path fill-rule="evenodd" clip-rule="evenodd" d="M32.25 42.198V30.75H35.25C38.796 30.75 41.982 32.289 44.148 34.764C43.686 39.258 39.873 42.75 35.25 42.75C34.194 42.75 33.18 42.567 32.25 42.198Z" fill="#FF8000"/>
<path fill-rule="evenodd" clip-rule="evenodd" d="M14.25 9.75C14.25 9.75 6.555 12.153 8.25 18.75C9.945 25.347 12.912 25.431 8.25 27.75C5.082 29.325 6.219 32.913 7.272 35.052C7.77 36.063 5.25 36.75 5.25 36.75C5.25 36.75 5.25 36.75 5.253 36.753C8.892 40.392 14.349 41.511 19.125 39.6C22.746 38.151 26.25 36.75 26.25 36.75L23.25 12.75L14.25 9.75Z" fill="#FFAD00"/>
<path fill-rule="evenodd" clip-rule="evenodd" d="M13.353 30.5307C15.414 28.9287 13.992 25.5447 12.75 23.2497C12.417 22.6377 12.153 22.0197 11.874 21.5307C9.00001 16.4997 11.25 13.4997 13.5 12.7497C15.825 11.9757 24.12 20.2587 26.25 21.7497C29.364 23.9277 32.25 33.7497 32.25 33.7497H11.25L12.675 31.0586H12.684C12.684 31.0586 12.942 30.8517 13.353 30.5307Z" fill="#FF8000"/>
<path fill-rule="evenodd" clip-rule="evenodd" d="M13.8848 18.3948C13.1438 17.8541 12.6788 17.0148 12.6128 16.0998C12.5798 15.8868 12.5708 15.7503 12.5708 15.7503C12.5708 15.7503 12 9.00031 18.75 9.75031C22.3538 10.1508 29.25 28.4456 29.25 28.4456C29.25 29.8046 30.1635 30.9941 31.4768 31.3443C32.844 31.7088 34.6403 32.1873 36.2693 32.6223C38.6168 33.2478 40.0276 35.6418 39.4381 37.9983C39.2243 38.8541 39.0068 39.7218 38.8178 40.4778C38.484 41.8136 37.2841 42.7503 35.9078 42.7503C30.8371 42.7503 18.8843 42.7503 13.7093 42.7503C12.279 42.7503 11.0483 41.7408 10.7678 40.3383C10.4393 38.6973 9.98854 36.4413 9.55804 34.2918C9.26704 32.8338 9.72304 31.3263 10.7745 30.2748C11.826 29.2233 13.3335 28.7673 14.7915 29.0583C16.9253 29.4851 19.164 29.9328 20.802 30.2606C21.4028 30.3806 22.0268 30.2253 22.5008 29.8361C22.9748 29.4476 23.25 28.8663 23.25 28.2536C23.25 27.7301 23.25 27.1856 23.25 26.6861C23.2493 26.3538 23.0715 26.0471 22.7843 25.8806C22.497 25.7141 22.1431 25.7126 21.8543 25.8768C20.8148 26.6876 19.3253 27.5126 18.0368 27.1811C17.9003 27.1458 16.9043 26.8136 17.0295 25.2843C17.0378 25.1756 16.9898 25.0706 16.914 24.9933C16.8375 24.9161 16.7326 24.8733 16.6238 24.8748C16.6238 24.8748 16.2766 24.8808 16.0936 24.5321C16.0118 24.3761 16.0958 24.1203 16.2473 24.0296C16.3598 23.9621 15.9518 24.2088 15.6945 23.9186C15.4418 23.6321 15.7898 22.9526 15.7313 22.9893C15.4553 23.1626 15.0758 23.2068 14.8478 23.1468C14.589 23.0973 14.3723 22.9218 14.2695 22.6788C14.166 22.4358 14.2883 22.1958 14.433 21.9753C15.0758 21.0191 14.8133 19.5206 14.3205 18.8568C14.1653 18.6468 14.0205 18.4998 13.8848 18.3948Z" fill="white"/>
<path fill-rule="evenodd" clip-rule="evenodd" d="M15.405 42.75C15.1717 41.5778 14.9422 40.4048 14.7217 39.2303C14.6767 38.9895 14.6317 38.7488 14.5882 38.508C14.568 38.397 14.5485 38.2868 14.5282 38.1758C14.52 38.1308 14.5132 38.085 14.5095 38.0393C14.4937 37.8368 14.5312 37.632 14.6182 37.449C14.7682 37.134 15.0577 36.8985 15.3967 36.8175C15.4935 36.7943 15.5917 36.7868 15.6907 36.78C15.8167 36.771 15.9427 36.7635 16.0687 36.759C16.5232 36.741 16.9785 36.7508 17.4315 36.7898C18.2677 36.8618 19.0942 37.0365 19.887 37.3103C20.7187 37.5975 21.5107 37.9935 22.2465 38.4758C23.1667 39.078 23.9947 39.813 24.726 40.6335L24.75 40.6613C26.397 38.796 29.4225 36.4125 33.9367 36.7898C34.2652 36.8198 34.566 36.9878 34.7632 37.2525C34.9605 37.5165 35.0363 37.8525 34.9718 38.1758C34.6688 39.8775 34.095 42.75 34.095 42.75H15.405Z" fill="black"/>
<path fill-rule="evenodd" clip-rule="evenodd" d="M14.8245 6.63461C14.8567 6.61736 14.9115 6.58661 15 6.53711C17.85 5.05886 23.241 4.81811 26.25 5.93636C28.521 6.78086 29.8507 8.25011 30.75 10.5001C32.5695 15.0511 32.25 15.1659 35.937 16.5384C37.1003 16.9711 38.9415 18.0376 39.897 19.7919C38.2327 20.8546 38.1698 26.3649 39.6165 25.8264C39.3338 26.4481 39.1065 27.0924 38.937 27.7501H41.25L41.0153 32.1031C41.0153 32.1031 40.1272 31.7941 39.225 31.4806C38.031 31.0651 36.7162 31.1874 35.6197 31.8166C34.8187 32.2756 33.897 32.8051 33.2205 33.1936C32.5845 33.5581 31.8645 33.7501 31.131 33.7501C30.921 33.7501 30.6907 33.7501 30.4477 33.7501C29.334 33.7501 28.2667 33.3076 27.4792 32.5209C26.6925 31.7334 26.25 30.6661 26.25 29.5524V24.6451C26.25 23.0461 24.954 21.7501 23.355 21.7501H23.25C18.2805 22.0239 14.8035 18.1479 12.6922 14.7204C11.8845 13.3764 11.6527 11.7631 12.0472 10.2459C12.4425 8.72786 13.4317 7.43337 14.7922 6.65337L14.8245 6.63461Z" fill="#FFAD00"/>
<path fill-rule="evenodd" clip-rule="evenodd" d="M39.615 25.8269C38.169 26.3639 36.582 26.4989 35.022 26.1929C32.184 25.6379 29.811 23.7059 28.695 21.0389C27.828 18.7499 26.25 18.7499 26.25 18.7499C22.023 18.7499 19.206 17.6189 17.364 16.3439C17.187 16.1819 17.151 15.9179 17.274 15.7109C17.4 15.5069 17.652 15.4169 17.877 15.4979C18.876 15.8909 20.04 16.0859 21.324 15.8369C26.298 14.8679 29.07 15.3899 32.25 18.7499C35.232 21.8969 38.232 20.8529 39.897 19.7909C40.761 21.2249 40.992 23.1479 39.726 25.5569L39.615 25.8269Z" fill="#FF8000"/>
</g>
<defs>
<clipPath id="clip0_5322_59384">
<rect width="48" height="48" rx="12" fill="white"/>
</clipPath>
</defs>
</svg>
