<svg width="48" height="48" viewBox="0 0 48 48" fill="none" xmlns="http://www.w3.org/2000/svg">
<rect width="48" height="48" rx="12" fill="#005FF9"/>
<path d="M24 6.25C14.2188 6.25 6.25 14.2187 6.25 24C6.25 33.7812 14.2188 41.75 24 41.75C30 41.75 34 38.6563 34 38.6563L31.6563 35.9688C31.6563 35.9688 28.5312 38.2188 24 38.2188C16.1562 38.2188 9.78125 31.8438 9.78125 24C9.78125 16.1562 16.1562 9.78125 24 9.78125C31.8437 9.78125 38.2188 16.1562 38.2188 24C38.2188 28.0625 36.9063 29.4062 35.3125 29.4062C33.9688 29.4062 32.9375 28.375 32.9375 26.9062V24C32.9375 19.0625 28.9375 15.0625 24 15.0625C19.0625 15.0625 15.0625 19.0625 15.0625 24C15.0625 28.9375 19.0625 32.9375 24 32.9375C26.5 32.9375 28.75 31.9062 30.375 30.25C31.4063 31.875 33.2188 32.9688 35.3125 32.9688C38.9063 32.9688 41.75 30.0938 41.75 24C41.75 14.2187 33.7812 6.25 24 6.25ZM18.5938 24C18.5938 21 21 18.5938 24 18.5938C26.9688 18.5938 29.4063 21 29.4063 24C29.4063 26.9688 26.9688 29.4062 24 29.4062C21 29.4062 18.5938 26.9688 18.5938 24Z" fill="#FF9E00"/>
</svg>
