<svg width="48" height="48" viewBox="0 0 48 48" fill="none" xmlns="http://www.w3.org/2000/svg">
<g clip-path="url(#clip0_112_281)">
<rect x="0" y="0" width="48" height="48" rx="12.0024" fill="#005FF9"/>
<path fill-rule="evenodd" clip-rule="evenodd" d="M12.7871 10.5439C14.6754 8.43988 17.1711 7.01203 20.127 7.01202C23.1123 7.01202 25.1728 8.45487 26.1515 10.7518C27.0849 12.9426 26.9873 15.7661 26.173 18.6361C24.6909 23.8593 20.6723 29.847 14.4236 34.0589C15.0578 34.6241 15.8274 35.0196 16.7491 35.2222C18.3371 35.5711 20.5684 35.3875 23.6365 34.1762C24.7105 33.7522 25.7265 33.3191 26.6862 32.8801C26.4016 30.151 26.8853 26.8255 28.1392 23.9687C29.6612 20.5011 32.645 17.137 37.2388 17.137C41.014 17.137 43.0449 20.9924 42.1297 24.839C41.2681 28.4602 38.0459 32.0901 31.9275 34.6005C32.1752 34.724 32.461 34.8302 32.7876 34.9122C34.0873 35.2386 35.9262 35.1337 38.0624 34.2047C42.8224 32.1348 46.7533 31.0938 50.2706 31.3146C53.3209 31.5061 55.8739 32.6331 58.2793 34.5185C58.4534 34.3835 58.6431 34.2424 58.8488 34.0965C60.1874 33.1473 62.188 32.0107 64.9592 31.1054C70.5117 29.2916 79.0146 28.4512 91.3229 31.6993C92.2918 31.955 92.7608 32.9681 92.3706 33.9623C91.9804 34.9564 90.8786 35.555 89.9097 35.2994C78.1196 32.188 70.3792 33.0957 65.713 34.6199C63.3748 35.3837 61.7722 36.3135 60.785 37.0136C60.2899 37.3646 59.9457 37.6606 59.7387 37.8532C59.6351 37.9496 59.5657 38.0201 59.5287 38.0588C59.5203 38.0677 59.5135 38.075 59.5084 38.0804C59.5039 38.0853 59.5007 38.0888 59.4989 38.0908C59.1436 38.4998 58.6512 38.7697 58.1355 38.8375C57.6126 38.9063 57.1123 38.7611 56.7535 38.4365C54.3312 36.2442 52.1041 35.1854 49.5418 35.0245C46.9232 34.8601 43.7006 35.6161 39.197 37.5745C36.3389 38.8174 33.6079 39.0734 31.4143 38.5225C29.9292 38.1496 28.6348 37.3821 27.7989 36.2607C26.7955 36.7176 25.7408 37.1659 24.6337 37.603C21.0631 39.0127 18.0016 39.411 15.4759 38.8561C13.5051 38.423 11.9772 37.4344 10.8522 36.0918C8.80313 37.0125 6.2677 37.7922 3.75866 38.3762C0.539323 39.1254 -2.86254 39.6042 -5.49261 39.6043C-7.66193 39.6043 -9.40451 39.2663 -10.4248 38.2804C-11.6635 37.0834 -11.3827 35.4762 -10.8822 34.385C-10.409 33.3534 -9.62158 32.4399 -9.0694 31.8626C-8.77532 31.5552 -8.50603 31.3002 -8.30872 31.1206C-8.2095 31.0303 -8.12699 30.9577 -8.0668 30.9056C-8.03667 30.8796 -8.01202 30.8585 -7.99354 30.8429L-7.9705 30.8235L-7.96259 30.8169L-7.95956 30.8143L-7.95828 30.8133C-7.95771 30.8128 -7.95716 30.8123 -6.85255 32.1661L-7.95716 30.8123C-7.10933 30.109 -5.92747 30.1449 -5.31742 30.8926C-4.70819 31.6392 -4.89959 32.8132 -5.74447 33.5169L-5.74698 33.519C-5.7473 33.5193 -5.74763 33.5195 -5.74795 33.5198L-5.74964 33.5213C-5.75611 33.5268 -5.76821 33.5371 -5.7853 33.5518C-5.81957 33.5815 -5.87342 33.6288 -5.94183 33.691C-6.07978 33.8166 -6.27085 33.9975 -6.4771 34.2132C-6.9256 34.6821 -7.29879 35.1635 -7.46543 35.5268C-7.46839 35.5332 -7.4712 35.5395 -7.47389 35.5455C-7.22073 35.6707 -6.54739 35.887 -4.99796 35.887C-2.75279 35.887 0.332691 35.4672 3.35638 34.7635C5.50193 34.2641 7.50558 33.6473 9.08886 32.9936C7.41653 28.7123 7.47521 22.9807 8.85316 18.1233C9.65181 15.308 10.944 12.5976 12.7871 10.5439ZM12.5705 31.0843C17.9427 27.4647 21.3267 22.3533 22.5372 18.087C23.2083 15.7217 23.1626 13.7998 22.6318 12.5539C22.1462 11.4142 21.2263 10.7293 19.6324 10.7293C18.051 10.7293 16.6867 11.4413 15.4772 12.7889C14.2225 14.187 13.179 16.2401 12.489 18.6722C11.2935 22.8863 11.3092 27.6751 12.5705 31.0843ZM30.4019 31.3867C36.0361 29.2081 37.9985 26.3562 38.4509 24.4547C39.0204 22.0614 37.6072 20.8543 36.7442 20.8543C34.4985 20.8543 32.7605 22.3675 31.5844 25.0472C30.6947 27.0741 30.3134 29.4319 30.4019 31.3867Z" fill="white"/>
</g>
<defs>
<clipPath id="clip0_112_281">
<rect x="0" y="0" width="48" height="48" rx="12.0024" fill="white"/>
</clipPath>
</defs>
</svg>
