<svg width="50" height="50" viewBox="0 0 50 50" fill="none" xmlns="http://www.w3.org/2000/svg">
<rect x="1" y="1" width="48" height="48" rx="12" fill="white"/>
<path d="M25 7.25C15.2188 7.25 7.25 15.2187 7.25 25C7.25 34.7812 15.2188 42.75 25 42.75C31 42.75 35 39.6563 35 39.6563L32.6563 36.9688C32.6563 36.9688 29.5312 39.2188 25 39.2188C17.1562 39.2188 10.7813 32.8438 10.7813 25C10.7813 17.1562 17.1562 10.7812 25 10.7812C32.8437 10.7812 39.2188 17.1562 39.2188 25C39.2188 29.0625 37.9063 30.4062 36.3125 30.4062C34.9688 30.4062 33.9375 29.375 33.9375 27.9062V25C33.9375 20.0625 29.9375 16.0625 25 16.0625C20.0625 16.0625 16.0625 20.0625 16.0625 25C16.0625 29.9375 20.0625 33.9375 25 33.9375C27.5 33.9375 29.75 32.9062 31.375 31.25C32.4063 32.875 34.2188 33.9688 36.3125 33.9688C39.9063 33.9688 42.75 31.0938 42.75 25C42.75 15.2187 34.7812 7.25 25 7.25ZM19.5938 25C19.5938 22 22 19.5938 25 19.5938C27.9688 19.5938 30.4063 22 30.4063 25C30.4063 27.9688 27.9688 30.4062 25 30.4062C22 30.4062 19.5938 27.9688 19.5938 25Z" fill="#FF9E00"/>
<rect x="1" y="1" width="48" height="48" rx="12" stroke="#00103D" stroke-opacity="0.08"/>
</svg>
