<svg width="48" height="48" viewBox="0 0 48 48" fill="none" xmlns="http://www.w3.org/2000/svg">
<g clip-path="url(#clip0_5322_59498)">
<path d="M48 0H0V48H48V0Z" fill="#005FF9"/>
<path fill-rule="evenodd" clip-rule="evenodd" d="M42.75 24C42.75 34.35 34.35 42.75 24 42.75C18.9075 42.75 14.295 40.7175 10.9125 37.425C7.4175 34.02 5.25 29.2575 5.25 24C5.25 13.65 13.65 5.25 24 5.25C29.2575 5.25 34.02 7.4175 37.425 10.9125C40.7175 14.295 42.75 18.9075 42.75 24Z" fill="#CAE4FF"/>
<path fill-rule="evenodd" clip-rule="evenodd" d="M38.9012 20.7685C37.9712 30.2913 30.2897 37.972 20.7654 38.902C20.6889 38.9088 20.6132 38.9155 20.5367 38.9223C13.7132 39.5125 7.34565 35.0193 5.7594 28.357C5.3214 26.5165 5.15415 24.5718 5.3034 22.5685C5.9844 13.4117 13.4124 5.9845 22.5692 5.3035C24.5724 5.15425 26.5164 5.32075 28.3569 5.7595C35.0199 7.34575 39.5132 13.714 38.9221 20.5383C38.9162 20.6148 38.9087 20.6912 38.9012 20.7685Z" fill="white"/>
<path d="M20.1987 5.6415C18.4937 8.28036 17.9813 10.3653 17.9739 10.3953L16.5202 10.0561C16.5502 9.92872 16.9272 8.35299 18.0993 6.20133L20.1987 5.6415Z" fill="#CAE4FF"/>
<path d="M10.062 18.918C8.48132 20.1274 7.33532 21.3881 6.50951 22.5604C6.2829 22.0669 6.10483 21.5637 5.95869 21.0628C6.75187 20.0955 7.76223 19.0902 9.04001 18.1098L10.062 18.918Z" fill="#CAE4FF"/>
<path d="M9.70907 34.3277L9.00424 33.766C9.10184 33.5121 11.4303 27.5281 15.0827 24.5626L15.3162 25.8247C11.9543 28.5556 9.73137 34.2697 9.70907 34.3277Z" fill="#CAE4FF"/>
<path fill-rule="evenodd" clip-rule="evenodd" d="M22.8978 25.4112C22.8978 25.4112 28.2276 28.2792 31.1146 35.4939L32.5074 34.9368C29.3926 27.1519 23.6032 24.0881 23.6032 24.0881L22.8978 25.4112Z" fill="#CAE4FF"/>
<path d="M37.5961 11.3399C30.7861 12.0074 26.7968 15.5174 26.7511 15.5549L25.7461 14.4449C25.9261 14.2874 29.7436 10.8974 36.4336 9.97485C36.7786 10.2674 37.1093 10.5824 37.4243 10.9124C37.4843 11.0549 37.5436 11.1974 37.5961 11.3399Z" fill="#CAE4FF"/>
<path fill-rule="evenodd" clip-rule="evenodd" d="M13.2828 39.3705C12.4433 38.7885 11.6547 38.1382 10.9265 37.4275C8.77182 35.3414 7.12273 32.7345 6.16818 29.8167C7.83729 30.1701 9.3865 30.6596 10.6446 31.1944C12.1286 33.6373 12.9406 36.4652 13.2828 39.3705Z" fill="#131313"/>
<path fill-rule="evenodd" clip-rule="evenodd" d="M41.9859 29.3029C39.9752 36.1346 34.1784 41.3479 27.0234 42.5029C27.3084 38.7979 28.0209 35.1229 30.0009 31.5529C33.9752 29.8496 37.9727 29.0179 41.9859 29.3029Z" fill="#131313"/>
<path fill-rule="evenodd" clip-rule="evenodd" d="M41.0241 16.1472C37.4162 15.4797 33.9805 13.5823 31.9116 12.0002C31.4091 10.4844 31.394 8.72217 31.7091 6.90715C33.8614 7.8748 35.7968 9.24001 37.4243 10.9125C38.909 12.4275 40.1242 14.1971 41.0241 16.1472Z" fill="#131313"/>
<path fill-rule="evenodd" clip-rule="evenodd" d="M17.6798 8.43091C21.3615 9.34216 24.6877 11.5697 27.468 14.2502C27.201 18.0579 26.5005 21.8319 24.4673 25.5002C20.4863 27.2049 16.488 28.0367 12.4672 27.7502C10.4295 25.4289 8.46075 22.9412 7.5 20.3259C8.5335 14.7894 12.4732 10.2722 17.6798 8.43091Z" fill="#FF9F00"/>
</g>
<defs>
<clipPath id="clip0_5322_59498">
<rect width="48" height="48" rx="12" fill="white"/>
</clipPath>
</defs>
</svg>
