<svg width="48" height="48" viewBox="0 0 48 48" fill="none" xmlns="http://www.w3.org/2000/svg">
<g clip-path="url(#clip0_4318_42682)">
<rect width="48" height="48" rx="12" fill="#005FF9"/>
<path d="M48 0H0V48H48V0Z" fill="#005FF9"/>
<path fill-rule="evenodd" clip-rule="evenodd" d="M42 10.5C42 9.705 41.685 8.94 41.121 8.379C40.56 7.815 39.795 7.5 39 7.5C32.22 7.5 15.78 7.5 9 7.5C8.205 7.5 7.44 7.815 6.879 8.379C6.315 8.94 6 9.705 6 10.5C6 15.696 6 26.304 6 31.5C6 32.295 6.315 33.06 6.879 33.621C7.44 34.185 8.205 34.5 9 34.5C15.78 34.5 32.22 34.5 39 34.5C39.795 34.5 40.56 34.185 41.121 33.621C41.685 33.06 42 32.295 42 31.5C42 26.304 42 15.696 42 10.5Z" fill="white"/>
<path d="M38.9996 10.5007H8.99963V31.5007H38.9996V10.5007Z" fill="#FFAD00"/>
<path d="M27 33H21V39H27V33Z" fill="white"/>
<path d="M33 37.5H15V40.5H33V37.5Z" fill="white"/>
</g>
<defs>
<clipPath id="clip0_4318_42682">
<rect width="48" height="48" rx="12" fill="white"/>
</clipPath>
</defs>
</svg>
