<svg width="48" height="48" viewBox="0 0 48 48" fill="none" xmlns="http://www.w3.org/2000/svg">
<g clip-path="url(#clip0_2090_22317)">
<path d="M0 23.04C0 12.1788 2.38419e-07 6.74826 3.37413 3.37413C6.74826 0 12.1788 0 23.04 0H24.96C35.8212 0 41.2517 0 44.6259 3.37413C48 6.74826 48 12.1788 48 23.04V24.96C48 35.8212 48 41.2517 44.6259 44.6259C41.2517 48 35.8212 48 24.96 48H23.04C12.1788 48 6.74826 48 3.37413 44.6259C2.38419e-07 41.2517 0 35.8212 0 24.96V23.04Z" fill="#0077FF"/>
<path d="M25.6252 34.7C14.8154 34.7 8.25697 27.186 8 14.7H13.4749C13.6456 23.8719 17.8107 27.7585 21.0037 28.5578V14.7H26.2504V22.6154C29.3301 22.2734 32.5537 18.6731 33.6372 14.7H38.8015C37.975 19.5856 34.4656 23.186 31.9861 24.6711C34.4676 25.8719 38.4601 29.015 40 34.7H34.3237C33.1252 30.8998 30.1893 27.9564 26.2523 27.5568V34.7H25.6252Z" fill="white"/>
</g>
<defs>
<clipPath id="clip0_2090_22317">
<rect width="48" height="48" rx="12" fill="white"/>
</clipPath>
</defs>
</svg>
