<svg width="48" height="48" viewBox="0 0 48 48" fill="none" xmlns="http://www.w3.org/2000/svg">
<g clip-path="url(#clip0_1764_9046)">
<rect width="48" height="48" rx="12" fill="#0077FF"/>
<path d="M0 23.04C0 12.1788 0 6.74826 3.37413 3.37413C6.74826 0 12.1788 0 23.04 0H24.96C35.8211 0 41.2517 0 44.6259 3.37413C48 6.74826 48 12.1788 48 23.04V24.96C48 35.8211 48 41.2517 44.6259 44.6259C41.2517 48 35.8211 48 24.96 48H23.04C12.1788 48 6.74826 48 3.37413 44.6259C0 41.2517 0 35.8211 0 24.96V23.04Z" fill="#0077FF"/>
<path d="M-0.388241 30.72C-0.388241 22.8035 -0.388241 18.8429 2.07179 16.3803C4.53183 13.9177 8.46511 13.9131 16.378 13.9131H31.7219C39.6348 13.9131 43.5912 13.9131 46.0467 16.3711C48.502 18.829 48.5067 22.7942 48.5067 30.7108V46.08C48.5067 54.0012 48.5067 57.9618 46.0467 60.4244C43.5866 62.887 39.6348 62.8823 31.7219 62.8823H16.378C8.46511 62.8823 4.5133 62.8823 2.05326 60.4244C-0.406772 57.9664 -0.388241 54.0012 -0.388241 46.08V30.72Z" fill="#00EDC5"/>
<path fill-rule="evenodd" clip-rule="evenodd" d="M0.00811428 29.0413C1.5541e-10 27.773 0 26.4154 0 24.9602V24.1986C4.63547 25.0319 8.85155 26.4299 12.4353 27.9374C15.6965 29.3278 18.8441 30.9715 21.8492 32.8534C22.6273 33.3394 23.2893 33.7784 23.8229 34.1442C24.2721 33.8021 24.8208 33.4015 25.4628 32.96C28.1858 31.1062 31.079 29.516 34.1031 28.2111C38.5681 26.2819 43.24 24.9494 48 24.2281V24.9602V24.9603C48 26.4178 48 27.7776 47.9918 29.0477C43.8729 29.7321 39.8318 30.9179 35.9609 32.5937C33.2183 33.7765 30.595 35.2193 28.1267 36.9021C27.4039 37.3983 26.8388 37.8326 26.4036 38.1672C26.3059 38.2422 26.2148 38.3123 26.1299 38.3768L25.6667 38.7757L25.5555 38.8731L24.0591 40.1994L22.4854 38.965L22.47 38.9844H22.4376L22.294 38.8777L21.6917 38.414C21.1682 38.0337 20.3482 37.4864 19.315 36.8418C16.5299 35.1096 13.613 33.5992 10.5915 32.3247C7.46439 31.0085 3.88642 29.8102 0.00811428 29.0413Z" fill="white"/>
</g>
<defs>
<clipPath id="clip0_1764_9046">
<rect width="48" height="48" rx="12" fill="white"/>
</clipPath>
</defs>
</svg>
