<svg width="48" height="48" viewBox="0 0 48 48" fill="none" xmlns="http://www.w3.org/2000/svg">
<g clip-path="url(#clip0_5322_59346)">
<path d="M48 0H0V48H48V0Z" fill="#005FF9"/>
<path fill-rule="evenodd" clip-rule="evenodd" d="M30.3765 42.7498H18V31.0673L30 26.5674C33.2812 26.2443 38.0303 26.0691 38.0303 26.0691C39.6308 27.8661 40.5 30.2001 40.5 32.623V32.6266C40.5 35.311 39.4335 37.8863 37.5352 39.7845C35.6362 41.6836 33.0615 42.7498 30.3765 42.7498Z" fill="white"/>
<path fill-rule="evenodd" clip-rule="evenodd" d="M30.375 22.5029C33.06 22.5029 35.637 23.567 37.536 25.4658L38.031 26.0713C37.635 26.9526 37.062 27.7516 36.363 28.4466C34.677 30.1269 32.388 31.0691 30 31.0691H18V22.5029H30.375Z" fill="#CAE4FF"/>
<path fill-rule="evenodd" clip-rule="evenodd" d="M31.3426 6.86241C31.8133 7.75211 32.5785 8.45052 33.5076 8.83919C33.5168 8.81794 33.5168 8.81797 33.5168 8.81797C34.4277 9.18843 35.4419 9.23087 36.3802 8.93937C36.8144 8.83005 37.2729 8.69039 37.6889 8.56286C37.9683 8.4748 38.275 8.55072 38.4815 8.76024C38.691 8.96672 38.7669 9.27337 38.6788 9.55273C38.5513 9.96874 38.4116 10.4273 38.278 10.8524C37.9835 11.8089 38.0321 12.8383 38.4147 13.7645C38.4359 13.7554 38.4359 13.7553 38.4359 13.7553C38.8246 14.6662 39.5139 15.4163 40.3914 15.8778C40.771 16.1056 41.187 16.3273 41.5696 16.5277C41.8277 16.6644 41.9917 16.9346 41.9917 17.2291C41.9917 17.5237 41.8277 17.7939 41.5696 17.9305C41.187 18.1309 40.771 18.3526 40.3793 18.5591C39.4896 19.0297 38.7912 19.795 38.4025 20.7242C38.4238 20.7333 38.4238 20.7332 38.4238 20.7332C38.0533 21.6442 38.0108 22.6584 38.3023 23.5967C38.4116 24.0309 38.5513 24.4895 38.6788 24.9055C38.7669 25.1849 38.691 25.4915 38.4815 25.698C38.275 25.9075 37.9683 25.9834 37.6889 25.8954C37.2729 25.7678 36.8144 25.6281 36.3893 25.4945C35.4328 25.1999 34.4034 25.2486 33.4773 25.6312C33.4864 25.6524 33.4864 25.6524 33.4864 25.6524C32.5754 26.0411 31.8254 26.7304 31.3639 27.608C31.1361 27.9875 30.9144 28.4035 30.714 28.7861C30.5774 29.0442 30.3071 29.2082 30.0126 29.2082C29.7181 29.2082 29.4478 29.0442 29.3112 28.7861C29.1108 28.4035 28.8891 27.9875 28.6826 27.5958C28.2119 26.7061 27.4467 26.0077 26.5176 25.619C26.5085 25.6403 26.5085 25.6403 26.5085 25.6403C25.5975 25.2698 24.5833 25.2274 23.645 25.5189C23.2108 25.6282 22.7523 25.7678 22.3363 25.8954C22.0569 25.9834 21.7502 25.9075 21.5437 25.698C21.3342 25.4915 21.2583 25.1849 21.3464 24.9055C21.4739 24.4895 21.6136 24.0309 21.7472 23.6058C22.0417 22.6493 21.9931 21.6199 21.6105 20.6938C21.5893 20.7029 21.5893 20.7029 21.5893 20.7029C21.2006 19.792 20.5113 19.0419 19.6338 18.5804C19.2542 18.3526 18.8382 18.1309 18.4556 17.9305C18.1975 17.7939 18.0335 17.5237 18.0335 17.2291C18.0335 16.9346 18.1975 16.6644 18.4556 16.5277C18.8382 16.3273 19.2542 16.1056 19.6459 15.8991C20.5356 15.4285 21.234 14.6632 21.6227 13.7341C21.6014 13.725 21.6014 13.725 21.6014 13.725C21.9719 12.814 22.0144 11.7999 21.7229 10.8616C21.6136 10.4273 21.4739 9.96874 21.3464 9.55273C21.2583 9.27337 21.3342 8.96672 21.5437 8.76024C21.7502 8.55072 22.0569 8.4748 22.3363 8.56286C22.7523 8.69039 23.2108 8.83013 23.6359 8.96374C24.5924 9.25828 25.6218 9.20966 26.5479 8.82705C26.5388 8.8058 26.5388 8.80583 26.5388 8.80583C27.4498 8.41716 28.1998 7.72783 28.6613 6.85027C28.8891 6.47071 29.1108 6.0547 29.3112 5.6721C29.4478 5.414 29.7181 5.25 30.0126 5.25C30.3071 5.25 30.5774 5.414 30.714 5.6721C30.9144 6.0547 31.1361 6.4707 31.3426 6.86241Z" fill="#FFAD00"/>
<path d="M30 24.75C34.1421 24.75 37.5 21.3921 37.5 17.25C37.5 13.1079 34.1421 9.75 30 9.75C25.8579 9.75 22.5 13.1079 22.5 17.25C22.5 21.3921 25.8579 24.75 30 24.75Z" fill="#FF8000"/>
<path d="M19.5 42.75C27.7843 42.75 34.5 36.0343 34.5 27.75C34.5 19.4657 27.7843 12.75 19.5 12.75C11.2157 12.75 4.5 19.4657 4.5 27.75C4.5 36.0343 11.2157 42.75 19.5 42.75Z" fill="white"/>
</g>
<defs>
<clipPath id="clip0_5322_59346">
<rect width="48" height="48" rx="12" fill="white"/>
</clipPath>
</defs>
</svg>
